/* XPM */
static const char *enemy[] = {
/* columns rows colors chars-per-pixel */
"64 64 226 2 ",
"   c #1C1012",
".  c #211112",
"X  c #450B01",
"o  c #4C0D00",
"O  c #510F00",
"+  c #4C1301",
"@  c #4B1A00",
"#  c #461001",
"$  c #531100",
"%  c #5B1400",
"&  c #551C04",
"*  c #5D1800",
"=  c #4C1B18",
"-  c #611700",
";  c #661A00",
":  c #6B1C00",
">  c #721E00",
",  c #5C201B",
"<  c #573304",
"1  c #6C2300",
"2  c #6C2A00",
"3  c #742200",
"4  c #7C2500",
"5  c #7D2A00",
"6  c #732A00",
"7  c #7B3500",
"8  c #763503",
"9  c #65221B",
"0  c #652317",
"q  c #722719",
"w  c #752820",
"e  c #5E4002",
"r  c #684804",
"t  c #77570B",
"y  c #7F4701",
"u  c #802700",
"i  c #852B00",
"p  c #8A2E00",
"a  c #8D3100",
"s  c #823C00",
"d  c #893703",
"f  c #943500",
"g  c #953900",
"h  c #9B3B00",
"j  c #852E1B",
"k  c #882F19",
"l  c #873019",
"z  c #8A311A",
"x  c #94341F",
"c  c #98351F",
"v  c #933A1F",
"b  c #9B3A1E",
"n  c #A13E00",
"m  c #AA3D13",
"M  c #A13D1E",
"N  c #A63B13",
"B  c #822D20",
"V  c #8C3420",
"C  c #863320",
"Z  c #943A20",
"A  c #9A3E20",
"S  c #903420",
"D  c #A63F20",
"F  c #844501",
"G  c #974402",
"H  c #855E00",
"J  c #995901",
"K  c #9E411F",
"L  c #A44300",
"P  c #A94600",
"I  c #AD4B00",
"U  c #B24D00",
"Y  c #A95107",
"T  c #B55200",
"R  c #BA5500",
"E  c #BE5A00",
"W  c #B55A07",
"Q  c #AE4114",
"!  c #A4431E",
"~  c #AC441D",
"^  c #AC4A1F",
"/  c #B34515",
"(  c #B94715",
")  c #B54916",
"_  c #BB4A16",
"`  c #B2461C",
"'  c #B44A1C",
"]  c #BB4D1C",
"[  c #BB471E",
"{  c #A75817",
"}  c #BE511C",
"|  c #B75B10",
" . c #866307",
".. c #846B1B",
"X. c #8B761B",
"o. c #997416",
"O. c #BB6506",
"+. c #B37311",
"@. c #9E4120",
"#. c #AD4120",
"$. c #AB4A20",
"%. c #B34420",
"&. c #BD4E20",
"*. c #B74C20",
"=. c #BF5220",
"-. c #897023",
";. c #C35C00",
":. c #C85E00",
">. c #C24C16",
",. c #C14E1D",
"<. c #CC5316",
"1. c #C4531C",
"2. c #CA561D",
"3. c #C6591C",
"4. c #CC5B1D",
"5. c #C55117",
"6. c #D15717",
"7. c #D25C1E",
"8. c #D95F1B",
"9. c #D25817",
"0. c #C66200",
"q. c #CB6400",
"w. c #CD6A00",
"e. c #C1650F",
"r. c #D16700",
"t. c #D36B00",
"y. c #D86F00",
"u. c #C97408",
"i. c #D67100",
"p. c #DC7400",
"a. c #DD7902",
"s. c #DB770C",
"d. c #CE621D",
"f. c #C56717",
"g. c #D4631D",
"h. c #D9651E",
"j. c #D5681F",
"k. c #DA6A1F",
"l. c #D87719",
"z. c #CE701B",
"x. c #E07600",
"c. c #E37B01",
"v. c #E87F00",
"b. c #E27F08",
"n. c #E27E14",
"m. c #C14F21",
"M. c #C45420",
"N. c #CA5620",
"B. c #C45820",
"V. c #CC5920",
"C. c #D45C20",
"Z. c #D95F21",
"A. c #D56121",
"S. c #DA6420",
"D. c #DD6B20",
"F. c #D56D20",
"G. c #CC7423",
"H. c #DC7221",
"J. c #D57A23",
"K. c #E16C21",
"L. c #E46B22",
"P. c #E57122",
"I. c #E37222",
"U. c #EA7B24",
"Y. c #E67723",
"T. c #A6821E",
"R. c #A78520",
"E. c #B18B20",
"W. c #DE840D",
"Q. c #E58103",
"!. c #EC8301",
"~. c #EE8902",
"^. c #E5830A",
"/. c #EC8C0E",
"(. c #EA870B",
"). c #F48C02",
"_. c #F88F00",
"`. c #F18903",
"'. c #F69103",
"]. c #FB9405",
"[. c #F5930B",
"{. c #F9950B",
"}. c #FB980A",
"|. c #E78716",
" X c #E9971B",
".X c #F49412",
"XX c #F49B1A",
"oX c #F99A12",
"OX c #FCA41C",
"+X c #DB842D",
"@X c #C99F2D",
"#X c #DE8330",
"$X c #EF8624",
"%X c #EC8224",
"&X c #E58627",
"*X c #F28B25",
"=X c #F28225",
"-X c #E79D23",
";X c #EB9527",
":X c #F89B28",
">X c #ED9233",
",X c #EF953A",
"<X c #EC9C37",
"1X c #F1973B",
"2X c #E68C33",
"3X c #C8A631",
"4X c #C8AA2C",
"5X c #FEAC24",
"6X c #F8A526",
"7X c #FDB32B",
"8X c #FCB937",
"9X c #ECAE30",
"0X c #F49C42",
"qX c #FAA44D",
"wX c #F7A248",
"eX c #FAB846",
"rX c #FDAC55",
"tX c #FEAE5A",
"yX c #FDB158",
"uX c #E7A249",
"iX c #FEC44D",
"pX c #FEC44A",
"aX c #FFC652",
"sX c #FCCA59",
"dX c #FED05F",
"fX c #FED565",
/* pixels */
"                                                                                                                                ",
"    = q k l z z z z z z z z z z z z z z z z z z k z k l k l k k k k l l z z z z z z z z z z z z z z z z l z l z k k l z q 9     ",
"  0 x 2.S.U.P.D.P.$XU.Y.Y.Y.Y.U.P.S.I.$X$XY.P.P.K.P.P.P.P.P.P.P.P.P.P.P.I.P.Y.$X$X$X$X$X*X*XP.$X*XU.Y.Y.D.S.K.K.P.P.S.7.N.! 0   ",
"  z A.P.P.C.7.S.S.S.S.L.S.C.C.N.N.2.N.N.V.Z.7.2.7.Z.S.+ V.1.1.2.C.S.A.S.L.L.L.L.D.L.L.K.L.Z.2.2.2.2.2.2.2.7.2.7.2.7.7.K.=XI.z . ",
"  b C.A.L.,.1.2.Z.Z.C.Z.Z.C.7.V.2.1.2.2.7.7.C.2.2.2.o e.G N.N.2.C.C.C.C.Z.Z.7.7.M.M.M.N.V.V.V.N.V.2.1.2.S.L.L.K.2.2.7.C.C.2.b . ",
"  b C.` C.Z.7.7.7.] ,.m.m.M.N.N.N.V.C.C.Z.Z.Z.Z.C.Z.O >XJ.{ C.C.C.C.C.C.C.C.Z.Z.Z.Z.C.V.V.V.V.Z.Z.+ o o Z.2.2.2.2.V.C.2.,.L.M . ",
"  b 2.,.[ &.%.%.%.%.%.%.%.%.%.%.%.%.~ ` %.%.#.%.%.%.O wX,X+X{ 8 #.~ #.#.#.#.#.#.~ %.%.%.%.%.%.%.` Y J.+X& #.` %.%.%.` [ 2.L.M . ",
"  b 1.1.,.x w B B B j B B B B B C C C C C C C z V V O rX0X,X2X| 8 C C z V C z V V V z V V V S 7 f.&X0X0X& B B B j w x [ 1.Z.M . ",
"  b 1.M.N.x B M ` ` ~ ` [ *.=.&.&.&.&.M.M.V.V.V.A.A.$ yXwX1X&Xt.I 8 V.V.=.$.*.M.M.M.M.M.M.M.N.O.#XqXtXwX& M.} ` #.S x [ ,.2.M . ",
"  b 2.1.V.x V 7.g.S.D.D.D.D.D.D.D.D.D.D.D.K.I.K.D.S.O yX0X,Xl.t.;.I 6 S.A.] V.C.C.C.7.V.2.2.I 1XwXrXtXqX& 2.S.A.2.! x 2.1.2.M . ",
"  b 7.M.V.x S S.D.K.K.D.D.g.] 4.D.D.2.h.D.K.P.D.S.S.O yX0X,Xz.L E ;.I o $ $ o $ $ $ $ $ J w.t.qXqXtXtXqX& 2.2.2.2.M x 2.M.2.M . ",
"  b Z.M.N.x S 2.7.g.D.K.7._ <._ 4./ 2.>.3.D.D.D.D.D.& uX0X2Xz.R q.i.i.w.w.w.E U T w.w.T q.p.>X0XqXtXtXeX& &Xd.2.2.! x 2.2.2.M . ",
"  M S.2.2.x Z g.D.K.D.h.1._ 8./ 1._ 8.<./ D.K.P.P.P.D.$ <XJ.f.t.p.c.c.c.w.p.t.R 0.!.!.;.p.p.,X>XwXrX0X-.:X*X4.g.h.~ x 2.7.2.b . ",
"  b A.2.1.x Z S.K.D.d.2.1./ >.Q 1./ <.( _ g.g.h.h.g.g.O <Xf.E i.p.t.y.!.a.q.y.;.;.).c.w.i.q.l.,X1XrXwX..*XU.2.g.g.^ x 7.2.2.b . ",
"  b Z.M.2.x V 2.S.4./ _ / ] m } g._ m _ 1./ _ D.D.D.D.O R R y.i.i.t.0.q.[.P i.0.;.].L [.a.;.p.|.&X0X,X..3.I.2.S.D.^ x 7.2.7.M . ",
"  b S.M.2.x Z g.D.4._ <./ h.g.3.3.3.g.g./ 6.( 4.D.D.D.O U L ;.0.b..X/.y.OXU a.q.;.'.U .X^.a.x.0.z.>X{ S.S.A.D.D.D.^ x 7.2.7.! . ",
"  b S.V.2.b b 7.D.D.) m ] h.] >.<.>._ h._ >./ 3.D.D.I.O U I t.i.XX5X5X/.8Xw.x.x.;.~.W.OXXX/.XXa.s.$XF D.D.D.D.k.D.^ x 7.2.7.M . ",
"  b 2.V.N.x z ' ] 2.2./ 1.] <.h.8.6.>._ 1./ ) 2.2.1.o g R E y.w. X-X-X-X8XXXb.c.;.~.8X6X-X X XoXoX(.J 1.} } } } } @.x 7.7.2.M . ",
"  b 2.V.C.b S 2.3.2.3.3./ >.8.9.6.6.6.( Q 7.k.D.k.D.o L P T ;.O.o.T.r ..8X5X^.!.i.).iX3Xr  .r OX{.`.i.F 2.2.2.2.2.! x Z.7.2.M . ",
"  b 2.N.C.x A D.D.D.k.k.Q >.6.<.<.<.9._ / D.D.D.I.I.o i f L ;.O.E.@Xr 4X..7X/.!.).[.8XX.< 4Xe -Xc.i.0.F D.D.D.D.h.^ x 7.7.7.M . ",
"  b 2.N.C.b v 7.g.k.D.h./ m _ ( / ( >.m 1.D.K.Y.Y.P.o 4 f I i.a.+.@X .X.< 6X(.).[.OX9XX.t 4XX.7X`.w.;.s I.P.D.h.g.$.x 1.2.A.b . ",
"  b 2.7.A.b A g.g.g.g.g.4.) / 1.7.1._ _ h.D.D.D.I.K.o i h U t.a.w.u.o.o.t a.p.[.{.5XR.3XR. .8XXXa.p.q.s I.D.k.D.D.^ x 2.2.g.b . ",
"  b 2.h.7.b @.D.D.D.D.D.D.k.k.D.k.D.k.D.D.I.P.P.I.D.o 4 n P U R i.a.w.[.Q.w.c.[.[.{.0.^./.a./.w.a.'.0.7 g.D.D.D.h.^ x 2.7.g.b . ",
"  b 2.h.7.b A g.h.h.h.h.D.D.D.D.D.D.D.D.D.D.D.D.S.k.D.$ h L T ;.a.p.q.[.c.q.^..XoXoXE !.c.p.i.w.x.Q.F *Xh.g.h.h.4.! x 2.7.7.b . ",
"  b 2.L.7.b @.S.k.h.h.D.D.D.k.k.k.k.k.k.k.D.D.K.D.D.D.% h T 0.a.t.t.t.R a./.OX6X5XOXO.[.!.i.).x.i.0.7 %XI.2.h.D.D.$.x 2.7.7.b . ",
"  b 2.K.8.b @.D.D.D.D.D.D.K.D.D.D.D.D.D.S.k.D.D.D.D.o d I 0.y.q.q.b..Xt.6X7X X X5X^.eX6X.Xp.x.i.t.2 h.d.=X4.D.k.h.^ x 2.2.2.b . ",
"  b 7.K.8.b A h.D.D.D.k.D.D.K.I.I.I.D.D.k.D.D.D.D.o Y | | | l.|.;X:X6XeXaXsXeXb.b.sXsXiX8X6XXX6XL D.D.d.=X4.k.k.h.^ x 2.2.2.b . ",
"  b 7.S.8.b Z ] } } 1.1.1.3.3.3.3.3.3.2.4.4.+ $ * d P f d d I z.n.s. XeXaXaXaXeX;XdXsXeX9X:XOXu.6 } } d.$X1.1.1.] v x 2.2.2.b . ",
"  b g.h.7.b A 4.g.g.d.g.g.h.j.j.k.k.k.D.D.o 5 f p u a i { G.G.e.;.E b.p.iXsX;X!.!.`.fX.X<XiX5XI d.4.1.H.Y.} 2.2.2.! x 2.=.2.b . ",
"  b K.7.h.c K h.k.k.k.D.k.D.I.I.I.K.k.% : a f g p 4 f i { d f L L h n T i.!.eXpXeX6Xc.;.p.!.{.@ k.k.h.$Xd.3.k.D.k.^ x 2.=.2.b . ",
"  b K.7.S.Z K g.g.h.D.P.Y.P.k.h.g.g.o i p a h h g 4 f f a i f L f a f h R E R R R U t.E [.{.].@ k.h.U.j.2.g.h.k.D.' x 2.M.2.b . ",
"  b D.h.7.Z b D.D.D.k.D.D.Y.%X=X*X$ : g f p f h f i f f h h h f f f ;.q.L g h n L t.y.}.}.~.}.@ h.Y.j.d.k.D.k.k.k.^ x 2.M.4.b . ",
"  M D.S.7.b ! D.k.k.h.h.H.*XY.g.$ : a h g f f f p i p g n L L h n L ;.0.E E E t.i.c.[.[.).t.a.@ D.U.2.k.k.h.k.k.k.^ x 4.M.4.b . ",
"  b A.S.h.b ! k.h.h.g.4.*XF.d.h.3 a g h f 4 p a i f f f h I T 0.;.T T P T t.p.v.!.).[.y.q.0.).@ k.Y.h.k.h.h.h.k.k.' x 2.B.2.b . ",
"  b A.7.S.b K 7.7.g.g.D.I.4.k.; f f g g a u i i 4 f f f g T 0.y.i.y.0.;.E O.0.p.c.x.i.O.i.!.].@ k.U.k.h.h.h.j.k.k.^ x 2.B.2.b . ",
"  M 7.2.S.b K k.D.K.h.I.h.g.o f f p a g f i 4 u i g h I R 0.T R x.x.x.!.!.!.!.!.)._.'._._._._.@ D.k.h.h.h.h.k.k.h.^ x 2.M.2.b . ",
"  b 7.2.D.b K h.h.k.g.I.h.d.o g f i i g f p 4 u f L L q.t.y.q.t.0.;.v.!.v.'.].}.]._.!.!.p.0.+ k.k.h.h.k.k.j.h.g.g.^ x 4.2.2.b . ",
"  b 7.2.L.x S ~ ' } } H.%Xo 3 i p g 4 u f g a 3 f a U 0.y.i.t.y.p.v.0.t.!.c.c.).}.].~.p.Q.}.+ ] ] ] ] ] ] ] ] ' ' b x 7.g.7.b . ",
"  b 7.2.K.x v 1.2.g.4.d.$Xo 3 u u f p i f f i 3 a i h L t.i.p.v.x.i.x.c.!.).'.].}.}.x._.).!.+ g.g.g.g.g.g.d.4.4.4.! x 2.h.g.b . ",
"  b 7.V.K.x K k.D.D.k.4.F.o p p i f f p p f i 3 p p g P P P ;.x.!.!.p.c.c.).).}.}.}.}.}.Q.G k.k.h.g.h.j.h.k.k.k.g.^ x 2.D.h.b . ",
"  b 2.V.L.x K h.k.k.k.k.7.3 a f p i i i i f g g i f L E T T U U E i.y.x.q.x._.].].q.'.i.i.1 h.4./ ) 3.h.k.k.k.j.k.^ x ] K.h.b . ",
"  b 2.B.g.x K 4.g.k.k.k.X i i p p g L L f p f h i L L p.t.y.q.;.;.t.t.i.y.p.!.p.p.;.t.q.U & 1./ 8.h./ d.h.d.4.4.4.! x ] k.g.b . ",
"  b 2.M.2.x K k.k.k.h.g.X a a g R ;.0.E I n f a u g L E x.x.x.p.x.t.;.q.p.t.).x.t.q.!.a.7 5._ / 7.h.( 4.h.h.h.4.4.! x 2.h.7.b . ",
"  b 2.M.2.x ! j.k.k.k.# h g g h I t.t.t.t.0.P p i u h P R E y.y.!.!.!.R x.x.!.!.i.~.'.a.o / 1.1._ 1./ g.h.h.h.k.k.' x 2.7.2.b . ",
"  b 2.2.2.x ! j.k.h.4.X n a a g n T R r.t.q.T U a u g L U T R T c.c.v.f x.q.q.!.!.!.c.7 Q 1.h.h._ / 1./ m _ g.g.h.^ x 2.1.2.v . ",
"  b 4.2.2.x b d.g.g.h.X f i p f L P I U U t.r.;.h > h R q.q.R T ;.;.p.p i.;.R ;.;.;.a.o g.} _ _ } 7.1.>.5.) d.g.g.^ x 2.} 2.v . ",
"  b 7.2.2.x b g.h.h.h.X f a n L ;.t.t.t.;.R q.q.;.; h U q.y.'.)._.'.!.3 L I ;.c.v.).'.o / >.9.<.( / 1./ / ) g.g.g.^ x 1.] 1.b . ",
"  b 7.2.2.x v ' ] } } X g a n L r.r.t.t.t.0.;.R R > 3 U R R R p._._.!.: g U i.!.'.).c.o >.h.6.<.<./ ) _ ' ] _ ' ' v x 1.1.2.b . ",
"  b 7.1.2.x A 2.3.4.2.X n p g h I U U E t.q.;.;.I : ; L L P I R 0.w.y.$ g ;.i.y.w.y.s Q 8.6.<.<.<.<.m 1.g.h.h.g.g.~ x 1.1.2.b . ",
"  b 7.1.1.x v h.} D.%XX h f f g L ;.I P I U q.;.L i - g 0.a.c.p.0.q.i.o f 0.t.;.c.x.O / 6.<.>.>.<.<.m 1.g.4.4.4.g.~ x 2.1.g.b . ",
"  b 7.1.1.x b h.h.1.H.o - a f h L r.q.q.R I R R h i ; ; E y.!.v.x.p.x.X f q.!.!._.!.O N ( _ m m / / m 3.g.g.g.g.g.^ x 2.1.g.b   ",
"  b 7.] 1.x A 4.h.h.; 3 % 4 L R R q.t.t.q.0.q.R a i ; ; d 0.x.x.c.v.!.X h ;.!._.'.'.O 1.) / 4.3.5._ 3.g.g.g.g.h.h.^ x 2.1.g.b . ",
"  b 2.] 1.x v 4.h.% u i ; 3 P U P P I R r.;.G 4 : - % % 1 I p.p.c.v.).X f ;.y.).).v.+ g.g.h.g.g.g.g.g.k.k.h.d.3.1.K x 2.} g.b . ",
"  b 7.,.1.x v g.$ a g g g 5 4 4 3 3 4 p a f 5 ; % % $ $ ; h R E 0.i.!.7 i ;.q.i.i._.0.g.h.h.h.g.3.4.4.4.4.d.g.g.g.! z 1.] 2.x . ",
"  b 2.2.2.x v 1.% a L R R U 3 % $ $ % % % % % % ; ; ; ; - 6 T R ;.c.~.p.2 T t.!.)._.c.7 g.g.g.4.4.4.4.g.g.g.d.3.3.K z 1.] 1.x . ",
"  b 2.2.4.z V } $ 5 L L R ;.E g L T r.r.R U 0.t.E R R q.0.J P T t.y.v.!.W L q._._.c.'.i.+ 4.d.4.4.4.4.g.g.g.g.g.4.K x 1.] 1.x . ",
"  b g.,.1.z B v o 3 g f ;.;.I g L ;.r.;.T q.t.y.;.R R p.p.q.G t.c.!.!.).p.d 0.~.'.:._.a.o ! ! ! ! ! ! ! ! ! ! M b V z ,.] 2.x . ",
"  x g.,.1.! ~ ! ! $ 4 u n L a p h 0.r.U U t.t.t.t.p.p.p.y.R G t.p.!.!._.).1 ;.~._.0.!.w.o ! ! ! ! ! ! ! ! ! ! ! M M b [ _ 2.x . ",
"  x 2._ 2.h.g.g.g.g.% % a a 3 p h R ;.n I E ;.0.q.;.0.0.R 1 o d E x.c.!.i.; h J  . . .y 2.2.2.2.2.3.<.<.1.1.1.1.1.1.2.1.) 1.x . ",
"  x _ 2.g.1.1.1.} ] ] ] o O - g h L L p f L P U P g g g 1 4.1.1.8 H H H F ] ] ] } } ] 1.1.1.1.1.1.} 1.1.1.1.1.1.1.] 1.2.] _ x   ",
"  z ` g.1.1.1.1.1.<.<.<.1.1.i L 5 o o o o o o o o o o o 1.3.4.4.4.4.1.1.1.1.<.1.1.1.1.1.1.1.1.] ] ] ] ] ] ] ] } ,.1.1.,.2._ z   ",
"  q b ] ' ` ` ' ' ' ' ' ` ` ` ` ' ' ' ` ` ` ` ` ` ` ~ ~ ~ ~ ` ' ' ' ' ' ' ' ' ' ` ' ' ' ` ` ` ` ` ' ' ' ` ' ` ` ~ ` ~ ~ ` ! q   ",
"    = , 9 9 9 9 9 9 9 9 9 9 9 9 9 9 9 9 9 9 9 9 9 9 9 9 9 9 9 9 9 9 9 9 9 9 9 9 9 9 9 9 9 9 9 9 9 9 9 9 9 9 9 9 9 9 9 9 , ,     ",
"                                                                                                                                "
};
